<svg xmlns="http://www.w3.org/2000/svg" viewBox="0 0 128 128" role="img" aria-labelledby="title desc">
<title id="title">Applebee's icon</title>
<desc id="desc">A restaurant badge with a stylized apple and leaf.</desc>
<defs>
<linearGradient id="apple" x1="0" y1="0" x2="1" y2="1">
<stop offset="0%" stop-color="#ff6b6b"/>
<stop offset="100%" stop-color="#c92a2a"/>
</linearGradient>
</defs>
<rect width="128" height="128" rx="30" fill="#fff5f5"/>
<path d="M65 27c6-8 15-12 24-10-3 9-11 16-21 18l-3-8Z" fill="#74b816"/>
<path d="M63 38c-18 0-32 13-32 31 0 20 16 34 33 34 18 0 33-14 33-34 0-18-14-31-34-31Z" fill="url(#apple)"/>
<path d="M63 49c-6 0-12 2-16 6" fill="none" stroke="#ffc9c9" stroke-width="5" stroke-linecap="round"/>
<path d="M60 25c0-7 5-13 12-15" fill="none" stroke="#6f9f28" stroke-width="5" stroke-linecap="round"/>
</svg>
