<svg xmlns="http://www.w3.org/2000/svg" viewBox="0 0 128 128" role="img" aria-labelledby="title desc">
<title id="title">Bird Dog Aviation icon</title>
<desc id="desc">A blue aviation badge with a simple aircraft silhouette and flight trail.</desc>
<defs>
<linearGradient id="sky" x1="0" y1="0" x2="1" y2="1">
<stop offset="0%" stop-color="#84d8ff"/>
<stop offset="100%" stop-color="#1c6dd0"/>
</linearGradient>
</defs>
<rect width="128" height="128" rx="30" fill="url(#sky)"/>
<path d="M24 87c15-8 31-12 48-12 18 0 30 2 38 5" fill="none" stroke="#dff6ff" stroke-width="6" stroke-linecap="round" stroke-dasharray="2 10"/>
<path d="M61 25c3 0 6 2 7 6l5 17 24 7c4 1 6 5 5 8-1 3-5 5-9 4l-18-4 6 23c1 4-1 8-4 9-3 1-7-1-8-5l-7-18-18 15c-3 2-7 2-10-1-2-3-2-7 1-10l17-18-15-8c-4-2-5-6-3-9 2-3 6-4 10-2l21 10-4-25c-1-5 2-9 7-9Z" fill="#ffffff"/>
<circle cx="92" cy="37" r="8" fill="#ffbf69"/>
</svg>
