<svg xmlns="http://www.w3.org/2000/svg" width="150" height="150" viewBox="0 0 150 150" fill="none"><g clip-path="url(#clip0_8057_3671)"><path d="M150 0H0V150H150V0Z" fill="#004DE1"></path><path d="M36.1167 99.4374C35.3833 101.908 34.0083 103.792 31.9833 105.096C29.9625 106.4 27.4583 107.062 24.4708 107.092C21.975 107.092 19.7542 106.592 17.8167 105.583C15.875 104.579 14.3542 103.167 13.2583 101.35C12.1583 99.5333 11.6083 97.4166 11.6083 94.9999C11.6083 92.5833 12.1292 90.5083 13.175 88.6916C14.2208 86.8749 15.6792 85.4624 17.55 84.4583C19.4208 83.4541 21.5667 82.9541 23.9833 82.9541C25.6917 82.9541 27.2125 83.2249 28.5417 83.7666C29.8708 84.3083 30.9417 85.0833 31.7583 86.0874V83.3583H35.5458V91.1749L32.2875 91.2166C31.5 89.7249 30.5292 88.6166 29.375 87.8999C28.2208 87.1791 26.8167 86.8208 25.1625 86.8208C22.775 86.8208 20.875 87.5749 19.4625 89.0791C18.05 90.5874 17.3458 92.5333 17.3458 94.9208C17.3458 96.5749 17.6625 98.0291 18.3042 99.2749C18.9417 100.525 19.825 101.487 20.95 102.167C22.075 102.846 23.3583 103.183 24.7958 103.183C26.5333 103.183 28.0042 102.737 29.2125 101.842C30.4208 100.946 31.2833 99.5874 31.7958 97.7708L36.1125 99.4416L36.1167 99.4374Z" fill="white"></path><path d="M42.6292 106.033C41.2875 105.329 40.25 104.325 39.5167 103.021C38.7834 101.717 38.4167 100.225 38.4167 98.5417C38.4167 96.8583 38.7834 95.375 39.5167 94.0833C40.25 92.7958 41.2875 91.7958 42.6292 91.0917C43.9709 90.3875 45.525 90.0333 47.2917 90.0333C49.0584 90.0333 50.6167 90.3875 51.975 91.0917C53.3334 91.7958 54.3834 92.7875 55.1292 94.0625C55.875 95.3375 56.25 96.8167 56.25 98.5C56.25 100.183 55.875 101.717 55.1292 103.017C54.3834 104.321 53.3292 105.325 51.975 106.029C50.6167 106.733 49.0584 107.087 47.2917 107.087C45.525 107.087 43.975 106.733 42.6292 106.029V106.033ZM50.4042 102.062C51.1792 101.179 51.5625 99.9917 51.5625 98.5C51.5625 97.0083 51.175 95.9167 50.4042 95.0583C49.6292 94.2042 48.5917 93.775 47.2917 93.775C45.9917 93.775 44.9959 94.2042 44.2375 95.0583C43.4792 95.9125 43.0959 97.075 43.0959 98.5375C43.0959 100 43.475 101.179 44.2375 102.058C44.9959 102.942 46.0125 103.367 47.2917 103.342C48.5959 103.371 49.6334 102.942 50.4042 102.058V102.062Z" fill="white"></path><path d="M57.1209 103.592H59.5209V85.9666H57.1584V82.9541H64.4042V103.592H66.6417V106.646H57.1167V103.592H57.1209Z" fill="white"></path><path d="M68.2542 103.592H70.6542V85.9666H68.2917V82.9541H75.5375V103.592H77.775V106.646H68.25V103.592H68.2542Z" fill="white"></path><path d="M95.4292 99.4H83.4208C83.6375 100.675 84.1875 101.658 85.0708 102.35C85.9542 103.042 87.0583 103.387 88.3875 103.387C90.3958 103.387 92.2 102.696 93.8 101.312L95.225 104.283C94.3292 105.154 93.2583 105.837 92.0083 106.337C90.7583 106.837 89.3875 107.092 87.8958 107.092C85.1292 107.092 82.8958 106.325 81.2 104.792C79.5042 103.258 78.6542 101.175 78.6542 98.5417C78.6542 96.8875 79.0292 95.4125 79.775 94.125C80.5208 92.8375 81.5583 91.8333 82.8875 91.1125C84.2167 90.3958 85.7083 90.0333 87.3667 90.0333C89.8625 90.0333 91.8292 90.8 93.2708 92.3333C94.7083 93.8667 95.4292 95.8833 95.4292 98.3792V99.3958V99.4ZM90.7875 97.0792C90.7875 95.8833 90.475 94.9625 89.85 94.3125C89.225 93.6625 88.3708 93.3375 87.2875 93.3375C86.2042 93.3375 85.3583 93.6625 84.6833 94.3125C84.0042 94.9625 83.5833 95.8875 83.4208 97.0792H90.7875Z" fill="white"></path><path d="M117 90.4417V93.4959H114.762V106.238C114.762 108.95 113.983 111 112.421 112.383C110.862 113.767 108.737 114.458 106.05 114.458C103.933 114.458 101.667 114.063 99.2542 113.279L100.067 110.063C102.021 110.688 103.771 111 105.317 111C106.783 111 107.9 110.646 108.675 109.942C109.45 109.238 109.833 108.204 109.833 106.846V105.3C108.45 106.358 106.821 106.888 104.95 106.888C102.587 106.888 100.683 106.133 99.2292 104.629C97.775 103.125 97.05 101.083 97.05 98.5042C97.05 95.9251 97.7708 93.8792 99.2083 92.3584C100.646 90.8376 102.546 90.0792 104.908 90.0792C105.858 90.0792 106.779 90.2501 107.675 90.5876C108.571 90.9251 109.346 91.3792 109.996 91.9501L110.037 90.4459H117V90.4417ZM103.342 102.042C104.142 102.883 105.179 103.304 106.454 103.304C107.729 103.304 108.8 102.967 109.833 102.288L109.792 94.8376C108.625 94.0251 107.458 93.6167 106.292 93.6167C105.042 93.6167 104.037 94.0459 103.279 94.9001C102.521 95.7542 102.137 96.9834 102.137 98.5834C102.137 100.05 102.537 101.204 103.337 102.042H103.342Z" fill="white"></path><path d="M133.879 99.4H121.871C122.088 100.675 122.638 101.658 123.521 102.35C124.404 103.042 125.508 103.387 126.838 103.387C128.846 103.387 130.65 102.696 132.25 101.312L133.675 104.283C132.779 105.154 131.708 105.837 130.458 106.337C129.208 106.837 127.838 107.092 126.346 107.092C123.579 107.092 121.346 106.325 119.65 104.792C117.954 103.258 117.104 101.175 117.104 98.5417C117.104 96.8875 117.479 95.4125 118.225 94.125C118.971 92.8375 120.008 91.8333 121.338 91.1125C122.667 90.3958 124.158 90.0333 125.817 90.0333C128.313 90.0333 130.279 90.8 131.721 92.3333C133.158 93.8667 133.879 95.8833 133.879 98.3792V99.3958V99.4ZM129.238 97.0792C129.238 95.8833 128.925 94.9625 128.3 94.3125C127.675 93.6625 126.821 93.3375 125.738 93.3375C124.654 93.3375 123.808 93.6625 123.133 94.3125C122.454 94.9625 122.033 95.8875 121.871 97.0792H129.238Z" fill="white"></path><path d="M14.7667 118.125H12.4042V114.704H22.2542V118.125H19.7708L23.5583 130.621L28.8083 115.275H32.35L37.5583 130.621L41.425 118.125H38.7375V114.704H48.1833V118.125H45.7833L39.4333 137.992H35.6458L30.3958 123.092L25.1833 137.992H21.3583L14.7625 118.125H14.7667Z" fill="white"></path><path d="M50.4792 137.379C49.1375 136.675 48.0958 135.671 47.3625 134.367C46.6292 133.062 46.2625 131.571 46.2625 129.887C46.2625 128.204 46.6292 126.721 47.3625 125.429C48.0958 124.142 49.1333 123.142 50.4792 122.437C51.8208 121.733 53.375 121.379 55.1417 121.379C56.9083 121.379 58.4667 121.733 59.825 122.437C61.1833 123.142 62.2333 124.133 62.9792 125.408C63.725 126.683 64.1 128.162 64.1 129.846C64.1 131.529 63.725 133.062 62.9792 134.362C62.2333 135.667 61.1792 136.671 59.825 137.375C58.4667 138.079 56.9083 138.433 55.1417 138.433C53.375 138.433 51.825 138.079 50.4792 137.375V137.379ZM58.2542 133.408C59.0292 132.525 59.4125 131.337 59.4125 129.846C59.4125 128.354 59.025 127.262 58.2542 126.404C57.4792 125.55 56.4417 125.121 55.1375 125.121C53.8333 125.121 52.8458 125.55 52.0833 126.404C51.325 127.258 50.9417 128.421 50.9417 129.883C50.9417 131.346 51.3208 132.525 52.0833 133.404C52.8417 134.287 53.8625 134.712 55.1375 134.687C56.4417 134.717 57.4792 134.287 58.2542 133.404V133.408Z" fill="white"></path><path d="M80.3833 122.279L79.325 126.35C78.2917 125.779 77.25 125.496 76.1917 125.496C75.2958 125.496 74.5292 125.8 73.8917 126.412C73.2542 127.025 72.9333 127.883 72.9333 128.996L72.8917 134.937H75.4167V137.992H65.4833V134.937H67.9667V124.842H65.4833V121.787H72.8917V124.883C73.8958 122.629 75.3458 121.504 77.2458 121.504C78.3042 121.504 79.35 121.762 80.3792 122.279H80.3833Z" fill="white"></path><path d="M80.4667 134.938H82.9083V117.313H80.5083V114.3H87.7958V129.363L93.7 124.846H91.2583V121.792H100.254V124.846H98.3L92.6833 129.283L98.0958 134.942H100.375V137.996H95.0417L87.7958 130.058V134.942H90.0333V137.996H80.4667V134.942V134.938Z" fill="white"></path><path d="M116.379 129.871C117.317 130.646 117.783 131.833 117.783 133.433C117.783 135.033 117.208 136.229 116.054 137.096C114.9 137.962 113.471 138.4 111.758 138.4C110.7 138.4 109.717 138.258 108.808 137.971C107.9 137.687 107.146 137.287 106.55 136.771V137.992H103.292V132.579H106.304L106.425 134.208C106.942 134.642 107.567 134.987 108.296 135.246C109.029 135.504 109.775 135.633 110.533 135.633C111.346 135.633 112 135.479 112.487 135.167C112.975 134.854 113.221 134.429 113.221 133.883C113.221 133.258 112.996 132.804 112.55 132.521C112.104 132.237 111.296 131.958 110.129 131.687L108.379 131.321C106.562 130.912 105.25 130.337 104.45 129.592C103.65 128.846 103.25 127.754 103.25 126.317C103.25 124.796 103.8 123.596 104.9 122.712C106 121.829 107.458 121.387 109.275 121.387C110.117 121.387 110.938 121.508 111.738 121.754C112.538 122 113.208 122.312 113.754 122.692V121.754H117.05V127.046H114.037L113.792 125.175C113.383 124.85 112.854 124.592 112.204 124.4C111.554 124.212 110.929 124.117 110.333 124.117C109.625 124.117 109.037 124.267 108.562 124.562C108.087 124.862 107.85 125.283 107.85 125.825C107.85 126.312 108.033 126.687 108.4 126.946C108.767 127.204 109.383 127.429 110.254 127.617L112.088 128.025C114.013 128.487 115.446 129.104 116.383 129.879L116.379 129.871Z" fill="white"></path></g><defs><clipPath id="clip0_8057_3671"><rect width="150" height="150" fill="white"></rect></clipPath></defs></svg>