<svg xmlns="http://www.w3.org/2000/svg" viewBox="0 0 128 128" role="img" aria-labelledby="title desc">
<title id="title">Preisser Media icon</title>
<desc id="desc">A dark rounded square with a play button, spark, and audio bars.</desc>
<defs>
<linearGradient id="bg" x1="0" y1="0" x2="1" y2="1">
<stop offset="0%" stop-color="#101522"/>
<stop offset="100%" stop-color="#1e2f4f"/>
</linearGradient>
<linearGradient id="accent" x1="0" y1="0" x2="1" y2="1">
<stop offset="0%" stop-color="#4fd1ff"/>
<stop offset="100%" stop-color="#7f8cff"/>
</linearGradient>
</defs>
<rect width="128" height="128" rx="30" fill="url(#bg)"/>
<circle cx="97" cy="31" r="10" fill="#ffd166"/>
<path d="M47 33c-10 0-18 8-18 18v26c0 10 8 18 18 18h34c10 0 18-8 18-18V51c0-10-8-18-18-18H47Zm6 17 28 14-28 14V50Z" fill="#fff"/>
<rect x="27" y="100" width="16" height="8" rx="4" fill="url(#accent)"/>
<rect x="49" y="94" width="16" height="14" rx="4" fill="url(#accent)"/>
<rect x="71" y="88" width="16" height="20" rx="4" fill="url(#accent)"/>
</svg>
