<svg xmlns="http://www.w3.org/2000/svg" viewBox="0 0 128 128" role="img" aria-labelledby="title desc">
<title id="title">Preisser Farms icon</title>
<desc id="desc">A farm badge with a barn, field, and sun.</desc>
<defs>
<linearGradient id="field" x1="0" y1="0" x2="1" y2="1">
<stop offset="0%" stop-color="#68c36d"/>
<stop offset="100%" stop-color="#2d7d46"/>
</linearGradient>
</defs>
<rect width="128" height="128" rx="30" fill="url(#field)"/>
<circle cx="95" cy="33" r="13" fill="#ffd166"/>
<path d="M22 95c17-14 37-21 59-21 10 0 19 1 25 3v19H22V95Z" fill="#8d5a2b"/>
<path d="M36 61 64 41l28 20v35H72V74H56v22H36V61Z" fill="#d94b3d"/>
<path d="M50 56h28v12H50V56Z" fill="#fff3e6"/>
<path d="M22 100h84" stroke="#d9f99d" stroke-width="6" stroke-linecap="round"/>
<path d="M32 108c13-8 27-12 44-12 9 0 17 1 24 4" fill="none" stroke="#d9f99d" stroke-width="4" stroke-linecap="round"/>
</svg>
